<?xml version="1.0" standalone="no"?><!DOCTYPE svg PUBLIC "-//W3C//DTD SVG 1.1//EN" "http://www.w3.org/Graphics/SVG/1.1/DTD/svg11.dtd"><svg t="1745460910392" class="icon" viewBox="0 0 1024 1024" version="1.1" xmlns="http://www.w3.org/2000/svg" p-id="4472" xmlns:xlink="http://www.w3.org/1999/xlink" width="200" height="200"><path d="M534.272 422.954667V0s244.864 154.154667 244.864 289.408v200.32h-178.090667c-36.906667 0-66.773333-29.866667-66.773333-66.773333z m-289.408 311.637333v-200.32h178.090667c36.906667 0 66.773333 29.866667 66.773333 66.773333V1024S244.906667 869.845333 244.906667 734.592z m178.090667-244.864H0S154.154667 244.906667 289.408 244.906667h200.32v178.090666c0 36.906667-29.866667 66.773333-66.773333 66.773334z m178.090666 44.544H1024s-154.154667 244.864-289.408 244.864h-200.32v-178.090667c0-36.906667 29.866667-66.773333 66.773333-66.773333z" p-id="4473" fill="#707070"></path></svg>